HIERARCHY
ROOT Hips
{
	OFFSET -0.001795 -0.223333 0.028219
	CHANNELS 6 Xposition Yposition Zposition Zrotation Yrotation Xrotation 
	JOINT LeftUpLeg
	{
		OFFSET 0.069520 -0.091406 -0.006815
		CHANNELS 3 Zrotation Yrotation Xrotation
		JOINT LeftLeg
		{
			OFFSET 0.034277 -0.375199 -0.004496
			CHANNELS 3 Zrotation Yrotation Xrotation
			JOINT LeftFoot
			{
				OFFSET -0.013596 -0.397961 -0.043693
				CHANNELS 3 Zrotation Yrotation Xrotation
				JOINT LeftToe
				{
					OFFSET 0.026358 -0.055791 0.119288
					CHANNELS 3 Zrotation Yrotation Xrotation
					End Site
					{
						OFFSET 0.000000 0.000000 0.000000
					}
				}
			}
		}
	}
	JOINT RightUpLeg
	{
		OFFSET -0.067670 -0.090522 -0.004320
		CHANNELS 3 Zrotation Yrotation Xrotation
		JOINT RightLeg
		{
			OFFSET -0.038290 -0.382569 -0.008850
			CHANNELS 3 Zrotation Yrotation Xrotation
			JOINT RightFoot
			{
				OFFSET 0.015774 -0.398415 -0.042312
				CHANNELS 3 Zrotation Yrotation Xrotation
				JOINT RightToe
				{
					OFFSET -0.025372 -0.048144 0.123348
					CHANNELS 3 Zrotation Yrotation Xrotation
					End Site
					{
						OFFSET 0.000000 0.000000 0.000000
					}
				}
			}
		}
	}
	JOINT Spine
	{
		OFFSET -0.002533 0.108963 -0.026696
		CHANNELS 3 Zrotation Yrotation Xrotation
		JOINT Spine1
		{
			OFFSET 0.005487 0.135180 0.001092
			CHANNELS 3 Zrotation Yrotation Xrotation
			JOINT Spine2
			{
				OFFSET 0.001457 0.052922 0.025425
				CHANNELS 3 Zrotation Yrotation Xrotation
				JOINT Neck
				{
					OFFSET -0.002778 0.213870 -0.042857
					CHANNELS 3 Zrotation Yrotation Xrotation
					JOINT Head
					{
						OFFSET 0.005152 0.064970 0.051349
						CHANNELS 3 Zrotation Yrotation Xrotation
						End Site
						{
							OFFSET 0.000000 0.000000 0.000000
						}
					}
				}
				JOINT LeftShoulder
				{
					OFFSET 0.078845 0.121749 -0.034090
					CHANNELS 3 Zrotation Yrotation Xrotation
					JOINT LeftArm
					{
						OFFSET 0.090977 0.030469 -0.008868
						CHANNELS 3 Zrotation Yrotation Xrotation
						JOINT LeftForeArm
						{
							OFFSET 0.259612 -0.012772 -0.027456
							CHANNELS 3 Zrotation Yrotation Xrotation
							JOINT LeftHand
							{
								OFFSET 0.249234 0.008986 -0.001171
								CHANNELS 3 Zrotation Yrotation Xrotation
								End Site
								{
									OFFSET 0.000000 0.000000 0.000000
								}
							}
						}
					}
				}
				JOINT RightShoulder
				{
					OFFSET -0.081759 0.118833 -0.038615
					CHANNELS 3 Zrotation Yrotation Xrotation
					JOINT RightArm
					{
						OFFSET -0.096012 0.032551 -0.009143
						CHANNELS 3 Zrotation Yrotation Xrotation
						JOINT RightForeArm
						{
							OFFSET -0.253742 -0.013329 -0.021401
							CHANNELS 3 Zrotation Yrotation Xrotation
							JOINT RightHand
							{
								OFFSET -0.255298 0.007772 -0.005559
								CHANNELS 3 Zrotation Yrotation Xrotation
								End Site
								{
									OFFSET 0.000000 0.000000 0.000000
								}
							}
						}
					}
				}
			}
		}
	}
}
MOTION
Frames: 13
Frame Time: 0.050000
0.000000 0.952952 0.000000 -1.119760 -0.038320 0.347045 6.001594 0.163606 6.281398 -3.135989 0.385902 -6.728374 -0.911307 4.321647 15.562345 0.000000 0.000000 0.000000 -1.942387 -0.429463 5.696808 2.364711 -0.358973 -5.791553 -7.466333 -18.994872 20.275431 0.000000 0.000000 0.000000 -1.931720 -0.012427 1.257364 3.453368 -0.312212 -22.566357 -1.198566 0.041730 29.414016 1.067239 0.992090 -26.774227 0.000000 0.000000 0.000000 -26.459529 3.361680 -3.702420 -53.502309 -6.160476 -6.256114 -6.005061 -18.839663 1.973324 0.000000 0.000000 0.000000 17.293054 1.418706 -0.087164 61.455645 3.830545 -6.836756 3.767122 21.477153 1.658812 0.000000 0.000000 0.000000 
0.000079 0.951768 0.000533 -1.175965 -0.555825 0.754648 6.552136 0.133192 6.299599 -4.127353 0.440648 -7.307707 -0.682383 4.585162 15.520454 0.000000 0.000000 0.000000 -1.946465 -0.344618 4.766938 2.382168 -0.341073 -4.961515 -7.349571 -18.857325 19.606683 0.000000 0.000000 0.000000 -1.843191 0.011185 0.355514 3.476263 -0.375952 -21.661406 -1.485122 0.387660 28.830742 0.842279 1.139286 -26.803062 0.000000 0.000000 0.000000 -27.176774 4.466123 -4.555076 -53.117434 -5.882030 -6.274823 -6.369333 -19.029449 2.056545 0.000000 0.000000 0.000000 17.034624 1.077360 -0.275936 62.808795 2.481162 -7.591389 3.101341 23.449789 1.731786 0.000000 0.000000 0.000000 
0.000245 0.951510 0.000813 -0.752392 -0.500765 0.935802 6.166413 0.125024 5.475316 -4.276212 0.450256 -6.206103 -0.638092 4.582844 15.284760 0.000000 0.000000 0.000000 -2.238041 -0.326491 4.802967 2.075737 -0.330130 -5.337726 -7.424139 -18.961676 19.521128 0.000000 0.000000 0.000000 -1.795466 0.014836 0.228955 2.765451 -0.159083 -22.198368 -1.466347 -0.208930 29.045317 0.671138 1.114922 -26.454670 0.000000 0.000000 0.000000 -26.783161 4.102663 -4.049945 -53.504382 -5.816650 -6.404642 -4.618329 -18.604546 1.742855 0.000000 0.000000 0.000000 17.192172 1.867351 -0.008006 62.746662 2.075019 -7.809613 2.640474 22.339236 1.514301 0.000000 0.000000 0.000000 
0.000334 0.951811 0.001093 -0.670660 -0.733080 0.906700 6.268309 0.134957 5.747994 -4.670328 0.473417 -6.532819 -0.618901 4.664519 15.558658 0.000000 0.000000 0.000000 -2.380041 -0.321215 4.893405 2.106562 -0.332813 -5.461895 -7.283858 -18.772349 19.545304 0.000000 0.000000 0.000000 -2.034804 0.023390 0.002739 3.135811 -0.256836 -22.244146 -1.747092 -0.174462 29.106547 0.766666 1.008188 -25.917505 0.000000 0.000000 0.000000 -27.454989 5.084834 -4.745342 -53.374633 -5.383841 -6.579846 -5.085286 -18.222957 1.785719 0.000000 0.000000 0.000000 17.260098 1.965378 0.015169 62.704225 1.808138 -7.959818 3.293987 22.152833 1.609059 0.000000 0.000000 0.000000 
0.000351 0.952509 0.001206 -0.642613 -0.476474 0.764803 6.085897 0.137024 5.600347 -4.344553 0.454659 -6.072362 -0.734906 4.532351 15.589442 0.000000 0.000000 0.000000 -2.252501 -0.343042 5.010879 1.870915 -0.318474 -5.335959 -7.393605 -18.921558 19.807257 0.000000 0.000000 0.000000 -2.008604 0.014367 0.324143 3.301645 -0.318349 -21.833647 -1.978630 -0.235401 28.430220 0.645741 1.062907 -25.234397 0.000000 0.000000 0.000000 -27.203108 5.132492 -4.815037 -53.565066 -5.194394 -6.591172 -5.087035 -18.266157 1.780410 0.000000 0.000000 0.000000 17.063075 1.884541 -0.009834 62.862397 1.657066 -7.975679 3.409469 21.354134 1.552763 0.000000 0.000000 0.000000 
0.000414 0.953077 0.001261 -0.553609 -0.409431 0.771432 6.059254 0.133144 5.488610 -4.459783 0.461555 -5.912433 -0.811560 4.478224 15.765139 0.000000 0.000000 0.000000 -2.469036 -0.340202 5.162761 2.088007 -0.336745 -5.603792 -7.374102 -18.888837 20.040339 0.000000 0.000000 0.000000 -2.232281 0.020057 0.204258 3.421697 -0.329987 -22.170908 -2.040579 -0.404090 28.837979 0.643299 1.025325 -25.051464 0.000000 0.000000 0.000000 -27.248898 5.493226 -4.993454 -53.693706 -5.134648 -6.684483 -5.436370 -18.435072 1.866135 0.000000 0.000000 0.000000 16.963511 1.760296 -0.088948 62.731530 1.522343 -8.084619 3.821300 21.113876 1.598128 0.000000 0.000000 0.000000 
0.000472 0.953345 0.001183 -0.594109 -0.362110 0.721432 6.061156 0.132684 5.490714 -4.379954 0.456639 -5.844842 -0.838646 4.454869 15.799590 0.000000 0.000000 0.000000 -2.363742 -0.338612 5.036550 1.981683 -0.324257 -5.284581 -7.410374 -18.939959 20.081665 0.000000 0.000000 0.000000 -2.243152 0.017401 0.314962 3.584870 -0.384777 -21.949333 -2.184963 -0.515434 28.578949 0.776367 0.923996 -24.875678 0.000000 0.000000 0.000000 -27.376328 5.559060 -5.038528 -53.462597 -4.840645 -6.769572 -5.690859 -18.812893 1.949524 0.000000 0.000000 0.000000 17.032465 1.943736 -0.021982 62.580029 1.468918 -8.069787 3.833274 21.203786 1.601065 0.000000 0.000000 0.000000 
0.000550 0.953312 0.001010 -0.690709 -0.399353 0.729207 6.074096 0.123372 5.261714 -4.234037 0.449448 -5.466155 -0.763890 4.518073 15.648156 0.000000 0.000000 0.000000 -2.336215 -0.329909 4.906032 2.116148 -0.324361 -4.914699 -7.279019 -18.731432 19.592712 0.000000 0.000000 0.000000 -2.197010 0.016210 0.345433 3.544884 -0.375246 -21.945809 -2.117139 -0.513813 28.713746 0.822632 0.879003 -24.692178 0.000000 0.000000 0.000000 -27.536548 5.309674 -4.885168 -52.976889 -4.942662 -6.698522 -6.097668 -19.158013 2.053588 0.000000 0.000000 0.000000 17.227243 1.911449 -0.049466 62.288335 1.635515 -7.971534 3.894642 21.254862 1.616256 0.000000 0.000000 0.000000 
0.000620 0.953201 0.000778 -0.666722 -0.358848 0.714047 6.087986 0.120637 5.226891 -4.303392 0.453551 -5.412992 -0.780083 4.487174 15.610350 0.000000 0.000000 0.000000 -2.384984 -0.322231 4.845335 2.175499 -0.322842 -4.644809 -7.234575 -18.646161 19.164613 0.000000 0.000000 0.000000 -2.233845 0.015370 0.401598 3.683935 -0.411161 -21.942493 -2.154883 -0.451883 28.682847 0.935695 0.808529 -24.428166 0.000000 0.000000 0.000000 -27.636854 5.190794 -4.851998 -52.745505 -5.126835 -6.592863 -6.476523 -19.380703 2.139233 0.000000 0.000000 0.000000 17.356472 1.908966 -0.038250 61.933647 1.676715 -7.910531 4.097684 21.483514 1.672457 0.000000 0.000000 0.000000 
0.000652 0.953256 0.000505 -0.702943 -0.392804 0.668520 6.079345 0.121072 5.191842 -4.228124 0.449611 -5.285424 -0.749465 4.519672 15.575548 0.000000 0.000000 0.000000 -2.457884 -0.313448 4.797402 2.368554 -0.329115 -4.320451 -7.084907 -18.402607 18.685841 0.000000 0.000000 0.000000 -2.207477 0.015810 0.349646 3.666743 -0.421695 -21.701617 -2.126594 -0.350435 28.656618 0.997198 0.775937 -24.275723 0.000000 0.000000 0.000000 -27.705190 4.948004 -4.735622 -52.512077 -5.209104 -6.525098 -6.766180 -19.639613 2.213119 0.000000 0.000000 0.000000 17.587209 2.046863 0.041431 61.765890 1.866077 -7.793050 3.873087 21.633276 1.649928 0.000000 0.000000 0.000000 
0.000628 0.953331 0.000188 -0.687029 -0.254861 0.698941 6.211931 0.109784 5.190794 -4.460098 0.461883 -5.418304 -0.848244 4.410352 15.655476 0.000000 0.000000 0.000000 -2.552751 -0.307074 4.780880 2.566723 -0.341074 -4.192188 -7.066384 -18.346304 18.343855 0.000000 0.000000 0.000000 -2.259622 0.016226 0.369182 3.746221 -0.437120 -21.750714 -2.168657 -0.398481 28.672625 1.064674 0.743100 -24.322126 0.000000 0.000000 0.000000 -27.688213 4.807816 -4.656089 -52.303125 -5.472212 -6.394013 -7.065011 -20.013103 2.308169 0.000000 0.000000 0.000000 17.689658 1.988497 0.016622 61.656979 1.976271 -7.728668 3.955623 21.621315 1.664840 0.000000 0.000000 0.000000 
0.000545 0.953470 -0.000120 -0.718204 -0.045067 0.683994 6.379799 0.096934 5.229745 -4.639592 0.469795 -5.554599 -0.983604 4.257839 15.736374 0.000000 0.000000 0.000000 -2.530701 -0.318160 4.870706 2.678853 -0.349783 -4.159110 -7.091734 -18.356814 18.092803 0.000000 0.000000 0.000000 -2.345030 0.017185 0.362322 3.845267 -0.458114 -21.766711 -2.124329 -0.559197 28.722459 1.187036 0.657420 -24.266963 0.000000 0.000000 0.000000 -27.701952 4.824842 -4.657566 -52.079078 -5.722117 -6.277076 -7.620027 -20.252586 2.436140 0.000000 0.000000 0.000000 17.685668 1.993613 0.014088 61.632224 2.068731 -7.683010 3.924719 21.677548 1.663518 0.000000 0.000000 0.000000 
0.000462 0.953696 -0.000408 -0.791919 0.097519 0.694909 6.542283 0.086587 5.318554 -4.744095 0.472282 -5.807182 -1.088608 4.154782 15.854992 0.000000 0.000000 0.000000 -2.466710 -0.331121 4.959221 2.735458 -0.357996 -4.381739 -7.133156 -18.414073 18.352632 0.000000 0.000000 0.000000 -2.399862 0.019101 0.301882 3.892289 -0.465189 -21.814927 -2.003749 -0.625607 28.860161 1.177369 0.666554 -24.312088 0.000000 0.000000 0.000000 -27.833652 4.818056 -4.678332 -51.719917 -5.837609 -6.208705 -8.106563 -20.683900 2.579803 0.000000 0.000000 0.000000 17.795149 1.857638 -0.051482 61.567899 2.075120 -7.693749 4.115319 21.855035 1.717585 0.000000 0.000000 0.000000 
